<?xml version="1.0" standalone="no"?>
<!DOCTYPE svg PUBLIC "-//W3C//DTD SVG 1.1//EN" "http://www.w3.org/Graphics/SVG/1.1/DTD/svg11.dtd">
<svg width="178mm" height="178mm" viewBox="-136 -9 178 178" xmlns="http://www.w3.org/2000/svg" version="1.1">
<title>OpenSCAD Model</title>
<path d="
M -110.588,167.758 L -103.665,166.961 L -96.7803,165.878 L -89.9463,164.512 L -83.1747,162.864 L -76.477,160.938
 L -69.8647,158.736 L -63.349,156.263 L -56.9413,153.523 L -50.6523,150.52 L -44.4929,147.259 L -38.4735,143.747
 L -32.6046,139.988 L -26.8961,135.991 L -21.3578,131.76 L -15.9992,127.304 L -10.8294,122.631 L -4.41298,129.047
 L 2.65807,121.976 L -3.75835,115.559 L 0.915298,110.39 L 5.37117,105.031 L 9.60165,99.4928 L 13.5995,93.7843
 L 17.3579,87.9154 L 20.8703,81.896 L 24.1309,75.7366 L 27.134,69.4476 L 29.8744,63.0399 L 32.3475,56.5242
 L 34.5491,49.9119 L 36.4754,43.2142 L 38.123,36.4426 L 39.4893,29.6086 L 40.5718,22.724 L 41.3686,15.8005
 L 41.8785,8.84999 L -2.45139,8.84999 L -2.45139,-8.84999 L -12.4514,-8.84999 L -12.4514,8.84999 L -26.7813,8.84999
 L -27.4291,14.3858 L -28.3843,19.8768 L -29.6439,25.3062 L -31.2041,30.6569 L -33.0599,35.9124 L -35.2057,41.0563
 L -37.6347,46.0727 L -40.3394,50.9459 L -43.3115,55.6609 L -46.5416,60.203 L -50.0198,64.5581 L -53.7352,68.7127
 L -57.6762,72.6537 L -61.8308,76.3691 L -66.1859,79.8473 L -70.728,83.0774 L -75.443,86.0495 L -80.3162,88.7542
 L -85.3326,91.1832 L -90.4765,93.329 L -95.732,95.1848 L -101.083,96.745 L -106.512,98.0046 L -112.003,98.9598
 L -117.539,99.6076 L -117.539,143.938 L -135.239,143.938 L -135.239,153.938 L -117.539,153.938 L -117.539,168.267
 z
M -9.25137,-1.75 L -9.25137,-5.34999 L -5.65138,-5.34999 L -5.65138,-1.75 z
M -9.25137,5.34999 L -9.25137,1.75 L -5.65138,1.75 L -5.65138,5.34999 z
M 1.54706,47.8143 L 1.125,47.6394 L 0.762558,47.3613 L 0.484451,46.9989 L 0.309616,46.5768 L 0.25,46.1239
 L 0.309616,45.6709 L 0.484451,45.2489 L 0.762558,44.8864 L 1.125,44.6083 L 1.54706,44.4335 L 2,44.3739
 L 2.45293,44.4335 L 2.875,44.6083 L 3.23743,44.8864 L 3.51553,45.2489 L 3.69037,45.6709 L 3.75,46.1239
 L 3.69037,46.5768 L 3.51553,46.9989 L 3.23743,47.3613 L 2.875,47.6394 L 2.45293,47.8143 L 2,47.8739
 z
M -12.2508,81.5694 L -14.3312,81.106 L -16.3221,80.3445 L -18.1808,79.3014 L -19.8678,77.9987 L -21.3472,76.4642
 L -22.5874,74.7307 L -23.562,72.8351 L -24.2503,70.8178 L -24.6374,68.7218 L -24.7153,66.5918 L -24.4821,64.4731
 L -23.943,62.4109 L -23.1094,60.4492 L -21.999,58.6299 L -20.6356,56.9915 L -19.0481,55.5692 L -17.2705,54.3931
 L -15.3406,53.4884 L -13.2995,52.8743 L -11.1907,52.5639 L -9.05927,52.5639 L -6.95052,52.8743 L -4.90942,53.4884
 L -2.97949,54.3931 L -1.20186,55.5692 L 0.38559,56.9915 L 1.74902,58.6299 L 2.85939,60.4492 L 3.69301,62.4109
 L 4.23213,64.4731 L 4.46526,66.5918 L 4.38741,68.7218 L 4.00026,70.8178 L 3.31204,72.8351 L 2.33745,74.7307
 L 1.09724,76.4642 L -0.382141,77.9987 L -2.06918,79.3014 L -3.92792,80.3445 L -5.91875,81.106 L -7.99922,81.5694
 L -10.125,81.725 z
M -31.579,56.6904 L -32.0011,56.5155 L -32.3635,56.2374 L -32.6416,55.875 L -32.8165,55.4529 L -32.8761,55
 L -32.8165,54.5471 L -32.6416,54.125 L -32.3635,53.7626 L -32.0011,53.4845 L -31.579,53.3096 L -31.1261,53.25
 L -30.6732,53.3096 L -30.2511,53.4845 L -29.8887,53.7626 L -29.6106,54.125 L -29.4357,54.5471 L -29.3761,55
 L -29.4357,55.4529 L -29.6106,55.875 L -29.8887,56.2374 L -30.2511,56.5155 L -30.6732,56.6904 L -31.1261,56.75
 z
M 13.6721,68.8154 L 13.25,68.6405 L 12.8876,68.3624 L 12.6095,68 L 12.4346,67.5779 L 12.375,67.125
 L 12.4346,66.6721 L 12.6095,66.25 L 12.8876,65.8876 L 13.25,65.6095 L 13.6721,65.4346 L 14.125,65.375
 L 14.5779,65.4346 L 15,65.6095 L 15.3624,65.8876 L 15.6405,66.25 L 15.8154,66.6721 L 15.875,67.125
 L 15.8154,67.5779 L 15.6405,68 L 15.3624,68.3624 L 15,68.6405 L 14.5779,68.8154 L 14.125,68.875
 z
M -34.8279,68.8154 L -35.25,68.6405 L -35.6124,68.3624 L -35.8905,68 L -36.0654,67.5779 L -36.125,67.125
 L -36.0654,66.6721 L -35.8905,66.25 L -35.6124,65.8876 L -35.25,65.6095 L -34.8279,65.4346 L -34.375,65.375
 L -33.9221,65.4346 L -33.5,65.6095 L -33.1376,65.8876 L -32.8595,66.25 L -32.6846,66.6721 L -32.625,67.125
 L -32.6846,67.5779 L -32.8595,68 L -33.1376,68.3624 L -33.5,68.6405 L -33.9221,68.8154 L -34.375,68.875
 z
M 10.4232,80.9404 L 10.0011,80.7655 L 9.63867,80.4874 L 9.36057,80.125 L 9.18575,79.7029 L 9.12611,79.25
 L 9.18575,78.7971 L 9.36057,78.375 L 9.63867,78.0126 L 10.0011,77.7345 L 10.4232,77.5596 L 10.8761,77.5
 L 11.329,77.5596 L 11.7511,77.7345 L 12.1135,78.0126 L 12.3916,78.375 L 12.5665,78.7971 L 12.6261,79.25
 L 12.5665,79.7029 L 12.3916,80.125 L 12.1135,80.4874 L 11.7511,80.7655 L 11.329,80.9404 L 10.8761,81
 z
M -22.7029,89.8165 L -23.125,89.6417 L -23.4874,89.3636 L -23.7655,89.0011 L -23.9404,88.579 L -24,88.1261
 L -23.9404,87.6732 L -23.7655,87.2511 L -23.4874,86.8887 L -23.125,86.6106 L -22.7029,86.4357 L -22.25,86.3761
 L -21.7971,86.4357 L -21.375,86.6106 L -21.0126,86.8887 L -20.7345,87.2511 L -20.5596,87.6732 L -20.5,88.1261
 L -20.5596,88.579 L -20.7345,89.0011 L -21.0126,89.3636 L -21.375,89.6417 L -21.7971,89.8165 L -22.25,89.8761
 z
M -59.7168,93.7043 L -60.1389,93.5294 L -60.5013,93.2513 L -60.7794,92.8889 L -60.9543,92.4668 L -61.0139,92.0139
 L -60.9543,91.561 L -60.7794,91.1389 L -60.5013,90.7765 L -60.1389,90.4984 L -59.7168,90.3235 L -59.2639,90.2639
 L -58.811,90.3235 L -58.3889,90.4984 L -58.0265,90.7765 L -57.7484,91.1389 L -57.5735,91.561 L -57.5139,92.0139
 L -57.5735,92.4668 L -57.7484,92.8889 L -58.0265,93.2513 L -58.3889,93.5294 L -58.811,93.7043 L -59.2639,93.7639
 z
M -71.8418,96.9532 L -72.2639,96.7783 L -72.6263,96.5002 L -72.9044,96.1378 L -73.0793,95.7157 L -73.1389,95.2628
 L -73.0793,94.8099 L -72.9044,94.3878 L -72.6263,94.0254 L -72.2639,93.7473 L -71.8418,93.5724 L -71.3889,93.5128
 L -70.936,93.5724 L -70.5139,93.7473 L -70.1515,94.0254 L -69.8734,94.3878 L -69.6985,94.8099 L -69.6389,95.2628
 L -69.6985,95.7157 L -69.8734,96.1378 L -70.1515,96.5002 L -70.5139,96.7783 L -70.936,96.9532 L -71.3889,97.0128
 z
M -61.3897,130.708 L -63.4702,130.245 L -65.461,129.483 L -67.3197,128.44 L -69.0068,127.138 L -70.4862,125.603
 L -71.7264,123.87 L -72.701,121.974 L -73.3892,119.957 L -73.7763,117.861 L -73.8542,115.731 L -73.621,113.612
 L -73.0819,111.55 L -72.2483,109.588 L -71.1379,107.769 L -69.7745,106.13 L -68.187,104.708 L -66.4094,103.532
 L -64.4795,102.627 L -62.4384,102.013 L -60.3296,101.703 L -58.1982,101.703 L -56.0894,102.013 L -54.0483,102.627
 L -52.1184,103.532 L -50.3408,104.708 L -48.7533,106.13 L -47.3899,107.769 L -46.2795,109.588 L -45.4459,111.55
 L -44.9068,113.612 L -44.6736,115.731 L -44.7515,117.861 L -45.1386,119.957 L -45.8268,121.974 L -46.8015,123.87
 L -48.0417,125.603 L -49.5211,127.138 L -51.2081,128.44 L -53.0668,129.483 L -55.0577,130.245 L -57.1381,130.708
 L -59.2639,130.864 z
M -38.7157,105.829 L -39.1378,105.654 L -39.5002,105.376 L -39.7783,105.014 L -39.9532,104.592 L -40.0128,104.139
 L -39.9532,103.686 L -39.7783,103.264 L -39.5002,102.901 L -39.1378,102.623 L -38.7157,102.449 L -38.2628,102.389
 L -37.8099,102.449 L -37.3878,102.623 L -37.0253,102.901 L -36.7472,103.264 L -36.5724,103.686 L -36.5128,104.139
 L -36.5724,104.592 L -36.7472,105.014 L -37.0253,105.376 L -37.3878,105.654 L -37.8099,105.829 L -38.2628,105.889
 z
M -6.18076,122.754 L -3.63516,120.208 L -1.08958,122.754 L -3.63516,125.299 z
M -80.718,130.079 L -81.14,129.904 L -81.5025,129.626 L -81.7806,129.264 L -81.9554,128.842 L -82.015,128.389
 L -81.9554,127.936 L -81.7806,127.514 L -81.5025,127.151 L -81.14,126.873 L -80.718,126.699 L -80.265,126.639
 L -79.8121,126.699 L -79.39,126.873 L -79.0276,127.151 L -78.7495,127.514 L -78.5746,127.936 L -78.515,128.389
 L -78.5746,128.842 L -78.7495,129.264 L -79.0276,129.626 L -79.39,129.904 L -79.8121,130.079 L -80.265,130.139
 z
M -47.5918,138.955 L -48.0139,138.781 L -48.3763,138.502 L -48.6544,138.14 L -48.8293,137.718 L -48.8889,137.265
 L -48.8293,136.812 L -48.6544,136.39 L -48.3763,136.028 L -48.0139,135.749 L -47.5918,135.575 L -47.1389,135.515
 L -46.686,135.575 L -46.2639,135.749 L -45.9015,136.028 L -45.6234,136.39 L -45.4485,136.812 L -45.3889,137.265
 L -45.4485,137.718 L -45.6234,138.14 L -45.9015,138.502 L -46.2639,138.781 L -46.686,138.955 L -47.1389,139.015
 z
M -59.7168,142.204 L -60.1389,142.029 L -60.5013,141.751 L -60.7794,141.389 L -60.9543,140.967 L -61.0139,140.514
 L -60.9543,140.061 L -60.7794,139.639 L -60.5013,139.276 L -60.1389,138.998 L -59.7168,138.824 L -59.2639,138.764
 L -58.811,138.824 L -58.3889,138.998 L -58.0265,139.276 L -57.7484,139.639 L -57.5735,140.061 L -57.5139,140.514
 L -57.5735,140.967 L -57.7484,141.389 L -58.0265,141.751 L -58.3889,142.029 L -58.811,142.204 L -59.2639,142.264
 z
M -131.739,150.738 L -131.739,147.138 L -128.139,147.138 L -128.139,150.738 z
M -124.639,150.738 L -124.639,147.138 L -121.039,147.138 L -121.039,150.738 z
" stroke="black" fill="lightgray" stroke-width="0.5"/>
</svg>
